<svg width="47" height="43" viewBox="0 0 47 43" fill="none" xmlns="http://www.w3.org/2000/svg">
<path id="Vector" d="M43.1323 25.0356L46.951 8.23355C47.2267 7.0204 46.3046 5.86518 45.0605 5.86518H13.3319L12.5915 2.24547C12.407 1.34324 11.6131 0.695312 10.6921 0.695312H2.40989C1.33916 0.695312 0.471191 1.56328 0.471191 2.63401V3.92648C0.471191 4.99721 1.33916 5.86518 2.40989 5.86518H8.05499L13.7296 33.6076C12.372 34.3883 11.4572 35.8522 11.4572 37.5306C11.4572 40.029 13.4825 42.0543 15.9808 42.0543C18.4791 42.0543 20.5044 40.029 20.5044 37.5306C20.5044 36.2645 19.9837 35.1206 19.1454 34.2995H36.0805C35.2424 35.1206 34.7216 36.2645 34.7216 37.5306C34.7216 40.029 36.7469 42.0543 39.2452 42.0543C41.7435 42.0543 43.7688 40.029 43.7688 37.5306C43.7688 35.7396 42.7278 34.1919 41.2179 33.459L41.6636 31.498C41.9393 30.2848 41.0172 29.1296 39.7731 29.1296H18.0905L17.5618 26.5447H41.2418C42.147 26.5447 42.9317 25.9183 43.1323 25.0356Z" fill="black"/>
</svg>
